<svg xmlns="http://www.w3.org/2000/svg" width="1258" height="1124" viewBox="0 0 1258 1124" fill="none">
<path fill-rule="evenodd" clip-rule="evenodd" d="M414.45 709.182C263.63 558.365 88.8938 488.547 24.1908 553.237C-40.5961 617.954 29.2368 792.738 180.085 943.512C330.919 1094.3 505.696 1164.12 570.399 1099.37C635.116 1034.68 565.284 859.943 414.45 709.182Z" fill="white"/>
<path fill-rule="evenodd" clip-rule="evenodd" d="M843.567 709.182C692.705 859.943 622.872 1034.68 687.617 1099.37C752.32 1164.12 927.112 1094.3 1077.9 943.512C1228.79 792.71 1298.57 617.954 1233.83 553.237C1169.08 488.491 994.401 558.365 843.567 709.182Z" fill="white"/>
<path d="M134.182 494.668C407.475 494.668 629.008 716.212 629.008 989.392C629.008 716.156 850.541 494.668 1123.79 494.668C850.541 494.668 629.008 273.194 629.008 0C629.008 273.181 407.475 494.668 134.182 494.668Z" fill="#B70300"/>
</svg>

