<svg xmlns="http://www.w3.org/2000/svg" width="4200" height="1124" viewBox="0 0 4200 1124" fill="none">
<path d="M1765.04 663.369H2010.63V1001.51H1921.25V924.219C1865.69 981.381 1788.39 1009.56 1703.84 1009.56C1534.75 1009.56 1397.05 875.109 1397.05 699.598C1397.05 524.892 1534.75 390.441 1703.84 390.441C1792.41 390.441 1872.13 421.035 1927.69 483.027L1868.91 541.799C1825.43 493.494 1774.7 464.51 1703.84 464.51C1574.2 464.51 1487.24 568.367 1487.24 699.598C1487.24 813.116 1570.18 935.491 1703.84 935.491C1761.01 935.491 1815.76 918.584 1856.03 873.498C1889.84 835.659 1911.59 788.963 1918.83 737.437H1765.04V663.369ZM2285.2 595.741C2399.54 595.741 2445.44 664.979 2445.44 723.751V1001.51H2362.5V958.033C2333.52 997.483 2281.98 1008.75 2249.77 1008.75C2158.79 1008.75 2099.2 955.618 2099.2 884.77C2099.2 785.743 2173.28 750.319 2249.77 750.319H2362.5V723.751C2362.5 698.793 2352.84 664.174 2285.2 664.174C2247.36 664.174 2212.73 684.301 2190.19 715.7L2133.02 664.174C2170.86 622.309 2224.81 595.741 2285.2 595.741ZM2362.5 877.524V817.947H2261.05C2211.93 817.947 2177.31 842.905 2182.94 887.99C2187.77 925.83 2218.37 941.126 2261.05 941.126C2337.54 941.126 2362.5 904.897 2362.5 877.524ZM2902.8 772.056V1001.51H2819.06L2819.86 998.288V780.107C2819.86 699.598 2798.93 664.174 2730.49 664.174C2653.19 664.174 2625.81 718.115 2625.81 788.158V1001.51H2542.87V603.792H2625.81V668.199C2637.08 632.775 2682.98 600.571 2730.49 597.351C2808.59 591.715 2864.15 617.478 2889.11 681.886C2906.02 627.139 2959.97 600.571 3006.67 597.351C3114.57 589.3 3178.99 641.631 3178.99 772.056V1001.51H3096.05V780.107C3096.05 699.598 3075.12 664.174 3006.67 664.174C2937.43 664.174 2908.44 707.649 2902.8 772.056ZM3548.58 603.792V674.64L3348.08 933.88H3548.58V1001.51H3262.73V925.83L3462.42 671.42H3262.73V603.792H3548.58ZM3748.27 603.792V1001.51H3665.34V603.792H3748.27ZM3752.3 458.069C3752.3 483.832 3732.17 503.96 3706.4 503.96C3681.44 503.96 3661.31 483.832 3661.31 458.069C3661.31 433.111 3681.44 412.984 3706.4 412.984C3732.17 412.984 3752.3 433.111 3752.3 458.069ZM4142.83 897.651L4200 949.177C4162.15 991.042 4108.2 1009.56 4047.81 1009.56C3933.47 1009.56 3840.87 921.804 3840.87 803.455C3840.87 685.106 3933.47 596.546 4047.81 596.546C4108.2 596.546 4162.15 615.063 4200 656.928L4142.83 708.454C4119.48 677.055 4085.66 664.979 4047.81 664.979C3979.37 664.979 3923.81 722.141 3923.81 803.455C3923.81 883.965 3979.37 941.932 4047.81 941.932C4085.66 941.932 4119.48 929.855 4142.83 897.651Z" fill="white"/>
<path fill-rule="evenodd" clip-rule="evenodd" d="M414.45 709.182C263.63 558.365 88.8938 488.547 24.1908 553.237C-40.5961 617.954 29.2368 792.738 180.085 943.512C330.919 1094.3 505.696 1164.12 570.399 1099.37C635.116 1034.68 565.284 859.943 414.45 709.182Z" fill="white"/>
<path fill-rule="evenodd" clip-rule="evenodd" d="M843.567 709.182C692.705 859.943 622.872 1034.68 687.617 1099.37C752.32 1164.12 927.112 1094.3 1077.9 943.512C1228.79 792.71 1298.57 617.954 1233.83 553.237C1169.08 488.491 994.401 558.365 843.567 709.182Z" fill="white"/>
<path d="M134.182 494.668C407.475 494.668 629.008 716.212 629.008 989.392C629.008 716.156 850.541 494.668 1123.79 494.668C850.541 494.668 629.008 273.194 629.008 0C629.008 273.181 407.475 494.668 134.182 494.668Z" fill="#B70300"/>
</svg>

